{"asset":{"version":"2.0","generator":"v-ronpa harness fixture generator"},"extensionsUsed":["KHR_materials_unlit"],"scene":0,"scenes":[{"name":"Academy Hall Harness Fixture","nodes":[0,1,2,3,4,5,6,7,8,9,10,11,12,13,14,15]}],"nodes":[{"name":"polished-stone-floor","mesh":0,"translation":[0,-0.05,0],"scale":[8,0.1,6]},{"name":"rear-academy-wall","mesh":1,"translation":[0,1.7,-3],"scale":[8,3.5,0.18]},{"name":"left-academy-wall","mesh":1,"translation":[-4,1.45,0],"scale":[0.18,3,6]},{"name":"right-academy-wall","mesh":1,"translation":[4,1.45,0],"scale":[0.18,3,6]},{"name":"rear-upper-trim","mesh":2,"translation":[0,3.35,-2.85],"scale":[8.2,0.18,0.28]},{"name":"left-ceiling-beam","mesh":2,"translation":[-2.3,3.15,0],"scale":[0.22,0.25,5.8]},{"name":"right-ceiling-beam","mesh":2,"translation":[2.3,3.15,0],"scale":[0.22,0.25,5.8]},{"name":"left-front-column","mesh":2,"translation":[-3.05,1.35,1.8],"scale":[0.35,2.7,0.35]},{"name":"right-front-column","mesh":2,"translation":[3.05,1.35,1.8],"scale":[0.35,2.7,0.35]},{"name":"left-rear-column","mesh":2,"translation":[-3.05,1.35,-1.85],"scale":[0.35,2.7,0.35]},{"name":"right-rear-column","mesh":2,"translation":[3.05,1.35,-1.85],"scale":[0.35,2.7,0.35]},{"name":"central-entry-door-panel","mesh":2,"translation":[0,1.05,-2.82],"scale":[1.55,2.1,0.16]},{"name":"entry-gold-header","mesh":3,"translation":[0,2.25,-2.7],"scale":[1.9,0.2,0.22]},{"name":"academy-crest-banner","mesh":4,"translation":[0,2.25,-2.62],"scale":[0.9,1.15,0.08]},{"name":"left-tall-window","mesh":5,"translation":[-2.1,1.85,-2.66],"scale":[0.75,1.5,0.08]},{"name":"right-tall-window","mesh":5,"translation":[2.1,1.85,-2.66],"scale":[0.75,1.5,0.08]}],"meshes":[{"name":"floorStone-cube","primitives":[{"attributes":{"POSITION":0,"NORMAL":1},"indices":2,"material":0}]},{"name":"wallPanel-cube","primitives":[{"attributes":{"POSITION":0,"NORMAL":1},"indices":2,"material":1}]},{"name":"darkTrim-cube","primitives":[{"attributes":{"POSITION":0,"NORMAL":1},"indices":2,"material":2}]},{"name":"goldAccent-cube","primitives":[{"attributes":{"POSITION":0,"NORMAL":1},"indices":2,"material":3}]},{"name":"redBanner-cube","primitives":[{"attributes":{"POSITION":0,"NORMAL":1},"indices":2,"material":4}]},{"name":"blueWindow-cube","primitives":[{"attributes":{"POSITION":0,"NORMAL":1},"indices":2,"material":5}]}],"materials":[{"name":"floorStone","pbrMetallicRoughness":{"baseColorFactor":[0.28,0.28,0.3,1],"metallicFactor":0,"roughnessFactor":0.9},"extensions":{"KHR_materials_unlit":{}}},{"name":"wallPanel","pbrMetallicRoughness":{"baseColorFactor":[0.58,0.55,0.5,1],"metallicFactor":0,"roughnessFactor":0.9},"extensions":{"KHR_materials_unlit":{}}},{"name":"darkTrim","pbrMetallicRoughness":{"baseColorFactor":[0.13,0.12,0.13,1],"metallicFactor":0,"roughnessFactor":0.9},"extensions":{"KHR_materials_unlit":{}}},{"name":"goldAccent","pbrMetallicRoughness":{"baseColorFactor":[0.88,0.67,0.2,1],"metallicFactor":0,"roughnessFactor":0.9},"extensions":{"KHR_materials_unlit":{}}},{"name":"redBanner","pbrMetallicRoughness":{"baseColorFactor":[0.55,0.08,0.1,1],"metallicFactor":0,"roughnessFactor":0.9},"extensions":{"KHR_materials_unlit":{}}},{"name":"blueWindow","pbrMetallicRoughness":{"baseColorFactor":[0.24,0.42,0.68,1],"metallicFactor":0,"roughnessFactor":0.9},"extensions":{"KHR_materials_unlit":{}}}],"buffers":[{"name":"embedded-unit-cube-buffer","byteLength":648,"uri":"data:application/octet-stream;base64,"}],"bufferViews":[{"buffer":0,"byteOffset":0,"byteLength":288,"target":34962},{"buffer":0,"byteOffset":288,"byteLength":288,"target":34962},{"buffer":0,"byteOffset":576,"byteLength":72,"target":34963}],"accessors":[{"bufferView":0,"byteOffset":0,"componentType":5126,"count":24,"type":"VEC3","min":[-0.5,-0.5,-0.5],"max":[0.5,0.5,0.5]},{"bufferView":1,"byteOffset":0,"componentType":5126,"count":24,"type":"VEC3"},{"bufferView":2,"byteOffset":0,"componentType":5123,"count":36,"type":"SCALAR","min":[0],"max":[23]}]}
