{"asset":{"version":"2.0","generator":"v-ronpa harness fixture generator"},"extensionsUsed":["KHR_materials_unlit"],"scene":0,"scenes":[{"name":"Case File Prop Harness Fixture","nodes":[0,1,2,3,4,5,6,7,8,9]}],"nodes":[{"name":"manila-folder-base","mesh":0,"translation":[0,0.03,0],"scale":[2.3,0.06,1.55]},{"name":"folder-cover-raised","mesh":0,"translation":[0.06,0.12,-0.06],"scale":[2.05,0.08,1.28]},{"name":"folder-tab","mesh":1,"translation":[-0.72,0.2,-0.83],"scale":[0.72,0.1,0.24]},{"name":"paper-stack-visible-edge","mesh":2,"translation":[0.2,0.19,0.03],"scale":[1.78,0.06,1.08]},{"name":"top-document-sheet","mesh":2,"translation":[0.2,0.25,0.03],"scale":[1.62,0.04,0.93]},{"name":"case-title-bar","mesh":4,"translation":[-0.18,0.29,-0.28],"scale":[0.92,0.035,0.08]},{"name":"evidence-line-one","mesh":4,"translation":[0.04,0.3,-0.03],"scale":[1.1,0.035,0.055]},{"name":"evidence-line-two","mesh":4,"translation":[-0.06,0.31,0.17],"scale":[0.82,0.035,0.055]},{"name":"red-case-seal","mesh":3,"translation":[0.72,0.32,0.35],"scale":[0.34,0.05,0.34]},{"name":"binding-band","mesh":1,"translation":[-1.03,0.25,0],"scale":[0.12,0.12,1.38]}],"meshes":[{"name":"folder-cube","primitives":[{"attributes":{"POSITION":0,"NORMAL":1},"indices":2,"material":0}]},{"name":"folderDark-cube","primitives":[{"attributes":{"POSITION":0,"NORMAL":1},"indices":2,"material":1}]},{"name":"paper-cube","primitives":[{"attributes":{"POSITION":0,"NORMAL":1},"indices":2,"material":2}]},{"name":"redSeal-cube","primitives":[{"attributes":{"POSITION":0,"NORMAL":1},"indices":2,"material":3}]},{"name":"blackInk-cube","primitives":[{"attributes":{"POSITION":0,"NORMAL":1},"indices":2,"material":4}]}],"materials":[{"name":"folder","pbrMetallicRoughness":{"baseColorFactor":[0.82,0.58,0.2,1],"metallicFactor":0,"roughnessFactor":0.9},"extensions":{"KHR_materials_unlit":{}}},{"name":"folderDark","pbrMetallicRoughness":{"baseColorFactor":[0.58,0.38,0.12,1],"metallicFactor":0,"roughnessFactor":0.9},"extensions":{"KHR_materials_unlit":{}}},{"name":"paper","pbrMetallicRoughness":{"baseColorFactor":[0.95,0.92,0.82,1],"metallicFactor":0,"roughnessFactor":0.9},"extensions":{"KHR_materials_unlit":{}}},{"name":"redSeal","pbrMetallicRoughness":{"baseColorFactor":[0.6,0.05,0.06,1],"metallicFactor":0,"roughnessFactor":0.9},"extensions":{"KHR_materials_unlit":{}}},{"name":"blackInk","pbrMetallicRoughness":{"baseColorFactor":[0.08,0.07,0.06,1],"metallicFactor":0,"roughnessFactor":0.9},"extensions":{"KHR_materials_unlit":{}}}],"buffers":[{"name":"embedded-unit-cube-buffer","byteLength":648,"uri":"data:application/octet-stream;base64,"}],"bufferViews":[{"buffer":0,"byteOffset":0,"byteLength":288,"target":34962},{"buffer":0,"byteOffset":288,"byteLength":288,"target":34962},{"buffer":0,"byteOffset":576,"byteLength":72,"target":34963}],"accessors":[{"bufferView":0,"byteOffset":0,"componentType":5126,"count":24,"type":"VEC3","min":[-0.5,-0.5,-0.5],"max":[0.5,0.5,0.5]},{"bufferView":1,"byteOffset":0,"componentType":5126,"count":24,"type":"VEC3"},{"bufferView":2,"byteOffset":0,"componentType":5123,"count":36,"type":"SCALAR","min":[0],"max":[23]}]}
