{"asset":{"version":"2.0","generator":"v-ronpa harness fixture generator"},"extensionsUsed":["KHR_materials_unlit"],"scene":0,"scenes":[{"name":"Door Prop Harness Fixture","nodes":[0,1,2,3,4,5,6,7,8,9,10]}],"nodes":[{"name":"door-slab","mesh":0,"translation":[0,1.35,0],"scale":[1.45,2.7,0.18]},{"name":"left-frame","mesh":2,"translation":[-0.87,1.45,0],"scale":[0.16,2.95,0.28]},{"name":"right-frame","mesh":2,"translation":[0.87,1.45,0],"scale":[0.16,2.95,0.28]},{"name":"top-frame","mesh":2,"translation":[0,2.88,0],"scale":[1.9,0.16,0.28]},{"name":"upper-door-panel","mesh":1,"translation":[0,2,0.12],"scale":[0.95,0.95,0.08]},{"name":"lower-door-panel","mesh":1,"translation":[0,0.82,0.12],"scale":[0.95,0.9,0.08]},{"name":"narrow-window-pane","mesh":4,"translation":[0,2.12,0.18],"scale":[0.48,0.62,0.05]},{"name":"brass-handle","mesh":3,"translation":[0.52,1.35,0.22],"scale":[0.16,0.16,0.16]},{"name":"brass-latch-bar","mesh":3,"translation":[0.42,1.35,0.2],"scale":[0.28,0.08,0.08]},{"name":"left-hinge-top","mesh":3,"translation":[-0.76,2.18,0.2],"scale":[0.08,0.34,0.08]},{"name":"left-hinge-bottom","mesh":3,"translation":[-0.76,0.76,0.2],"scale":[0.08,0.34,0.08]}],"meshes":[{"name":"wood-cube","primitives":[{"attributes":{"POSITION":0,"NORMAL":1},"indices":2,"material":0}]},{"name":"woodPanel-cube","primitives":[{"attributes":{"POSITION":0,"NORMAL":1},"indices":2,"material":1}]},{"name":"darkFrame-cube","primitives":[{"attributes":{"POSITION":0,"NORMAL":1},"indices":2,"material":2}]},{"name":"brass-cube","primitives":[{"attributes":{"POSITION":0,"NORMAL":1},"indices":2,"material":3}]},{"name":"glass-cube","primitives":[{"attributes":{"POSITION":0,"NORMAL":1},"indices":2,"material":4}]}],"materials":[{"name":"wood","pbrMetallicRoughness":{"baseColorFactor":[0.42,0.22,0.1,1],"metallicFactor":0,"roughnessFactor":0.9},"extensions":{"KHR_materials_unlit":{}}},{"name":"woodPanel","pbrMetallicRoughness":{"baseColorFactor":[0.54,0.3,0.15,1],"metallicFactor":0,"roughnessFactor":0.9},"extensions":{"KHR_materials_unlit":{}}},{"name":"darkFrame","pbrMetallicRoughness":{"baseColorFactor":[0.14,0.1,0.08,1],"metallicFactor":0,"roughnessFactor":0.9},"extensions":{"KHR_materials_unlit":{}}},{"name":"brass","pbrMetallicRoughness":{"baseColorFactor":[0.86,0.62,0.22,1],"metallicFactor":0,"roughnessFactor":0.9},"extensions":{"KHR_materials_unlit":{}}},{"name":"glass","pbrMetallicRoughness":{"baseColorFactor":[0.34,0.56,0.72,1],"metallicFactor":0,"roughnessFactor":0.9},"extensions":{"KHR_materials_unlit":{}}}],"buffers":[{"name":"embedded-unit-cube-buffer","byteLength":648,"uri":"data:application/octet-stream;base64,"}],"bufferViews":[{"buffer":0,"byteOffset":0,"byteLength":288,"target":34962},{"buffer":0,"byteOffset":288,"byteLength":288,"target":34962},{"buffer":0,"byteOffset":576,"byteLength":72,"target":34963}],"accessors":[{"bufferView":0,"byteOffset":0,"componentType":5126,"count":24,"type":"VEC3","min":[-0.5,-0.5,-0.5],"max":[0.5,0.5,0.5]},{"bufferView":1,"byteOffset":0,"componentType":5126,"count":24,"type":"VEC3"},{"bufferView":2,"byteOffset":0,"componentType":5123,"count":36,"type":"SCALAR","min":[0],"max":[23]}]}
