{"asset":{"version":"2.0","generator":"v-ronpa harness fixture generator"},"extensionsUsed":["KHR_materials_unlit"],"scene":0,"scenes":[{"name":"Classroom Harness Fixture","nodes":[0,1,2,3,4,5,6,7,8,9,10,11,12,13,14,15,16,17,18]}],"nodes":[{"name":"classroom-floor","mesh":0,"translation":[0,-0.05,0],"scale":[7,0.1,5.5]},{"name":"front-classroom-wall","mesh":1,"translation":[0,1.5,-2.75],"scale":[7,3.1,0.16]},{"name":"left-classroom-wall","mesh":1,"translation":[-3.5,1.35,0],"scale":[0.16,2.8,5.5]},{"name":"right-classroom-wall","mesh":1,"translation":[3.5,1.35,0],"scale":[0.16,2.8,5.5]},{"name":"wide-chalkboard","mesh":2,"translation":[0,1.85,-2.62],"scale":[3.7,1.25,0.08]},{"name":"teacher-desk-top","mesh":3,"translation":[0,0.75,-1.65],"scale":[2.2,0.25,0.85]},{"name":"teacher-desk-front","mesh":3,"translation":[0,0.42,-1.28],"scale":[2.2,0.65,0.16]},{"name":"attendance-sheet","mesh":5,"translation":[-0.65,0.9,-1.58],"scale":[0.55,0.04,0.38]},{"name":"student-desk-left-front","mesh":3,"translation":[-1.8,0.55,0.1],"scale":[1.05,0.25,0.8]},{"name":"student-desk-center-front","mesh":3,"translation":[0,0.55,0.1],"scale":[1.05,0.25,0.8]},{"name":"student-desk-right-front","mesh":3,"translation":[1.8,0.55,0.1],"scale":[1.05,0.25,0.8]},{"name":"student-desk-left-back","mesh":3,"translation":[-1.8,0.55,1.55],"scale":[1.05,0.25,0.8]},{"name":"student-desk-center-back","mesh":3,"translation":[0,0.55,1.55],"scale":[1.05,0.25,0.8]},{"name":"student-desk-right-back","mesh":3,"translation":[1.8,0.55,1.55],"scale":[1.05,0.25,0.8]},{"name":"chair-left-front","mesh":4,"translation":[-1.8,0.32,0.78],"scale":[0.8,0.3,0.38]},{"name":"chair-center-front","mesh":4,"translation":[0,0.32,0.78],"scale":[0.8,0.3,0.38]},{"name":"chair-right-front","mesh":4,"translation":[1.8,0.32,0.78],"scale":[0.8,0.3,0.38]},{"name":"left-window","mesh":6,"translation":[-3.38,1.75,-1.2],"scale":[0.08,1.1,1.15]},{"name":"right-window","mesh":6,"translation":[3.38,1.75,-1.2],"scale":[0.08,1.1,1.15]}],"meshes":[{"name":"floorWood-cube","primitives":[{"attributes":{"POSITION":0,"NORMAL":1},"indices":2,"material":0}]},{"name":"wallWarm-cube","primitives":[{"attributes":{"POSITION":0,"NORMAL":1},"indices":2,"material":1}]},{"name":"chalkboard-cube","primitives":[{"attributes":{"POSITION":0,"NORMAL":1},"indices":2,"material":2}]},{"name":"deskWood-cube","primitives":[{"attributes":{"POSITION":0,"NORMAL":1},"indices":2,"material":3}]},{"name":"chairDark-cube","primitives":[{"attributes":{"POSITION":0,"NORMAL":1},"indices":2,"material":4}]},{"name":"paper-cube","primitives":[{"attributes":{"POSITION":0,"NORMAL":1},"indices":2,"material":5}]},{"name":"windowBlue-cube","primitives":[{"attributes":{"POSITION":0,"NORMAL":1},"indices":2,"material":6}]}],"materials":[{"name":"floorWood","pbrMetallicRoughness":{"baseColorFactor":[0.45,0.3,0.17,1],"metallicFactor":0,"roughnessFactor":0.9},"extensions":{"KHR_materials_unlit":{}}},{"name":"wallWarm","pbrMetallicRoughness":{"baseColorFactor":[0.72,0.68,0.58,1],"metallicFactor":0,"roughnessFactor":0.9},"extensions":{"KHR_materials_unlit":{}}},{"name":"chalkboard","pbrMetallicRoughness":{"baseColorFactor":[0.06,0.25,0.17,1],"metallicFactor":0,"roughnessFactor":0.9},"extensions":{"KHR_materials_unlit":{}}},{"name":"deskWood","pbrMetallicRoughness":{"baseColorFactor":[0.5,0.33,0.18,1],"metallicFactor":0,"roughnessFactor":0.9},"extensions":{"KHR_materials_unlit":{}}},{"name":"chairDark","pbrMetallicRoughness":{"baseColorFactor":[0.18,0.17,0.16,1],"metallicFactor":0,"roughnessFactor":0.9},"extensions":{"KHR_materials_unlit":{}}},{"name":"paper","pbrMetallicRoughness":{"baseColorFactor":[0.93,0.9,0.8,1],"metallicFactor":0,"roughnessFactor":0.9},"extensions":{"KHR_materials_unlit":{}}},{"name":"windowBlue","pbrMetallicRoughness":{"baseColorFactor":[0.3,0.53,0.78,1],"metallicFactor":0,"roughnessFactor":0.9},"extensions":{"KHR_materials_unlit":{}}}],"buffers":[{"name":"embedded-unit-cube-buffer","byteLength":648,"uri":"data:application/octet-stream;base64,"}],"bufferViews":[{"buffer":0,"byteOffset":0,"byteLength":288,"target":34962},{"buffer":0,"byteOffset":288,"byteLength":288,"target":34962},{"buffer":0,"byteOffset":576,"byteLength":72,"target":34963}],"accessors":[{"bufferView":0,"byteOffset":0,"componentType":5126,"count":24,"type":"VEC3","min":[-0.5,-0.5,-0.5],"max":[0.5,0.5,0.5]},{"bufferView":1,"byteOffset":0,"componentType":5126,"count":24,"type":"VEC3"},{"bufferView":2,"byteOffset":0,"componentType":5123,"count":36,"type":"SCALAR","min":[0],"max":[23]}]}
